<?xml version="1.0" standalone="no"?>
<!DOCTYPE svg PUBLIC "-//W3C//DTD SVG 20010904//EN"
 "http://www.w3.org/TR/2001/REC-SVG-20010904/DTD/svg10.dtd">
<svg version="1.0" xmlns="http://www.w3.org/2000/svg"
 width="400.000000pt" height="400.000000pt" viewBox="0 0 400.000000 400.000000"
 preserveAspectRatio="xMidYMid meet">
<metadata>
Created by potrace 1.13, written by Peter Selinger 2001-2015
</metadata>
<g transform="translate(0.000000,400.000000) scale(0.100000,-0.100000)"
fill="#000000" stroke="none">
<path d="M1878 3461 c-16 -9 -28 -23 -28 -31 0 -18 489 -510 507 -510 15 0 24
14 33 55 9 42 -11 70 -179 239 -205 208 -234 234 -271 249 -31 12 -38 12 -62
-2z"/>
<path d="M1416 3020 c-160 -161 -302 -306 -315 -322 l-24 -30 254 -254 c140
-139 261 -254 270 -254 8 0 63 50 122 110 59 61 113 110 121 110 7 0 278 -266
602 -591 324 -325 602 -598 618 -606 47 -24 92 -11 148 44 63 62 64 93 7 160
-37 43 -329 334 -981 979 -115 113 -208 208 -208 211 0 2 45 48 100 100 56 53
100 102 98 109 -3 12 -486 506 -509 520 -7 4 -135 -117 -303 -286z"/>
<path d="M932 2520 c-25 -41 -15 -74 44 -141 99 -113 348 -350 388 -371 37
-19 41 -19 73 -4 18 9 33 19 33 24 0 14 -498 512 -512 512 -7 0 -19 -9 -26
-20z"/>
<path d="M1137 1333 c-4 -3 -7 -39 -7 -80 l0 -73 550 0 551 0 -3 78 -3 77
-541 3 c-297 1 -544 -1 -547 -5z"/>
<path d="M969 1116 c-14 -15 -12 -193 4 -198 6 -2 329 -3 717 -2 l705 2 3 92
c1 51 -1 97 -5 101 -12 12 -1412 16 -1424 5z"/>
</g>
</svg>
